<svg width="40" height="40" viewBox="0 0 40 40" fill="none" xmlns="http://www.w3.org/2000/svg">
<rect width="40" height="40" fill="#E5E5E5"/>
<rect width="40" height="40" fill="#44A5EC" fill-opacity="0.87"/>
<path d="M13.6094 23.4453V25H7.57031V23.4453H13.6094ZM8.125 13.625V25H6.16406V13.625H8.125ZM12.8203 18.375V19.9062H7.57031V18.375H12.8203ZM13.5703 13.625V15.1875H7.57031V13.625H13.5703ZM19.6406 15.1406L16.2422 25H14.1875L18.4688 13.625H19.7812L19.6406 15.1406ZM22.4844 25L19.0781 15.1406L18.9297 13.625H20.25L24.5469 25H22.4844ZM22.3203 20.7812V22.3359H16.1328V20.7812H22.3203ZM32.4141 21.2969H34.3672C34.3047 22.0417 34.0964 22.7057 33.7422 23.2891C33.388 23.8672 32.8906 24.3229 32.25 24.6562C31.6094 24.9896 30.8307 25.1562 29.9141 25.1562C29.2109 25.1562 28.5781 25.0312 28.0156 24.7812C27.4531 24.526 26.9714 24.1667 26.5703 23.7031C26.1693 23.2344 25.862 22.6693 25.6484 22.0078C25.4401 21.3464 25.3359 20.6068 25.3359 19.7891V18.8438C25.3359 18.026 25.4427 17.2865 25.6562 16.625C25.875 15.9635 26.1875 15.3984 26.5938 14.9297C27 14.4557 27.487 14.0938 28.0547 13.8438C28.6276 13.5938 29.2708 13.4688 29.9844 13.4688C30.8906 13.4688 31.6562 13.6354 32.2812 13.9688C32.9062 14.3021 33.3906 14.763 33.7344 15.3516C34.0833 15.9401 34.2969 16.6146 34.375 17.375H32.4219C32.3698 16.8854 32.2552 16.4661 32.0781 16.1172C31.9062 15.7682 31.651 15.5026 31.3125 15.3203C30.974 15.1328 30.5312 15.0391 29.9844 15.0391C29.5365 15.0391 29.1458 15.1224 28.8125 15.2891C28.4792 15.4557 28.2005 15.7005 27.9766 16.0234C27.7526 16.3464 27.5833 16.7448 27.4688 17.2188C27.3594 17.6875 27.3047 18.224 27.3047 18.8281V19.7891C27.3047 20.362 27.3542 20.8828 27.4531 21.3516C27.5573 21.8151 27.7135 22.2135 27.9219 22.5469C28.1354 22.8802 28.4062 23.138 28.7344 23.3203C29.0625 23.5026 29.4557 23.5938 29.9141 23.5938C30.4714 23.5938 30.9219 23.5052 31.2656 23.3281C31.6146 23.151 31.8776 22.8932 32.0547 22.5547C32.237 22.2109 32.3568 21.7917 32.4141 21.2969Z" fill="black"/>
</svg>
